<svg xmlns="http://www.w3.org/2000/svg" viewBox="0 0 204.09 211.63"><defs><style>.cls-1{fill:#ff526c;}</style></defs><g id="Layer_2" data-name="Layer 2"><g id="レイヤー_1" data-name="レイヤー 1"><path d="M11.56,201.78H31.74l-.51,9.14H0V161.24H11.56Zm84.66.92c-1.15,0-1.88-.77-1.88-2.69V174.73H82.86v25.5c0,4.74.5,11.4,9.75,11.4a14,14,0,0,0,7.22-2.2l-.5-7.36A8.76,8.76,0,0,1,96.22,202.7Zm29.4-19.31h.44a15.8,15.8,0,0,1,7.63,1.93h0l.42.26.64-9.31s-4-2.82-11-2.82c-6.39,0-18.6,2.89-18.6,19.08s12.21,19.09,18.6,19.09c7,0,11-2.82,11-2.82l-.64-9.32s-.15.11-.42.27h0a15.92,15.92,0,0,1-7.63,1.93h-.44c-4.09,0-9.05-2.11-9.05-9.16S121.53,183.39,125.62,183.39Zm78,18.68a8.76,8.76,0,0,1-3.11.63c-1.15,0-1.88-.77-1.88-2.69V174.73H187.12v25.5c0,4.74.51,11.4,9.75,11.4a14,14,0,0,0,7.22-2.2Zm-115-31a6.76,6.76,0,1,0-6.76-6.76A6.76,6.76,0,0,0,88.6,171ZM193,171a6.76,6.76,0,1,0-6.76-6.76A6.76,6.76,0,0,0,193,171Zm-27,2.44a18.54,18.54,0,0,0-10.33,2.91V161.24H144.24v49.68h11.41V185s2.91-2.49,5.71-2.49c3.32,0,4.69,1.63,4.69,5v23.37h11.49V185.25C177.54,177.15,172.11,173.46,166,173.46ZM75.9,202.07l.5,7.36a17.55,17.55,0,0,1-8.3,2.2c-3.81,0-6.52-1.68-7.34-4.43a17.54,17.54,0,0,1-10.51,4.43l.06,0c-.32,0-.66,0-1,0-5.12,0-10.61-2.62-10.61-10.2,0-.19,0-.38,0-.56.28-9.2,8.84-11.54,12.74-12.16a23.67,23.67,0,0,1,7.95.25c-.12-4.14-1.74-5.94-6.33-5.94h-.56a23.12,23.12,0,0,0-4,.5,20.82,20.82,0,0,0-7.15,3l-.11-2.17h0l-.3-6.54c1.44-1.54,7.47-4.37,13.88-4.37,12.3,0,16.09,6.23,16.09,16.36v10.9a2,2,0,0,0,2,2.06A7,7,0,0,0,75.9,202.07Zm-16.55-6.25c-5.47-.77-9.1.79-9.1,4a3.26,3.26,0,0,0,3.54,3.33,9.32,9.32,0,0,0,5.56-2.34Z"/><path class="cls-1" d="M155.52,19.92a16.6,16.6,0,0,0,.25-2.92A17.45,17.45,0,0,0,142.24,0a17.45,17.45,0,0,1-16.62,12.1c-1.35,0-2.7.05-4.06.14A61.18,61.18,0,0,0,77.06,36c-.38.5-.76,1-1.13,1.52q-1.67,2.31-3.12,4.77c-.08.14-.17.28-.25.43-.22.35-.43.72-.62,1.1a19.94,19.94,0,0,0-2.33,9.39A20.15,20.15,0,0,0,89.76,73.38a36.2,36.2,0,0,1,.79-7.51A35.55,35.55,0,0,1,94.7,55.21,36.19,36.19,0,0,1,107,42.74l.72-.43a35.87,35.87,0,1,1,19,66.92,58.13,58.13,0,0,0,3.18-4.87c.4-.67.79-1.36,1.15-2a.08.08,0,0,1,0,0,20.17,20.17,0,0,0-18.17-28.89A35.81,35.81,0,0,1,95.71,104l-.73.43a35.86,35.86,0,1,1-29.41-65v0c10.49-4.15,14-19.6,7.25-27.77A17.28,17.28,0,0,0,63.52,6a17.47,17.47,0,0,1-9.81,10.73A60.29,60.29,0,0,0,42.19,23a61.27,61.27,0,0,0,59.16,106.62A61.26,61.26,0,0,0,155.52,19.92Z"/></g></g></svg>